<?xml version="1.0" standalone="no"?>
<!DOCTYPE svg PUBLIC "-//W3C//DTD SVG 20010904//EN"
 "http://www.w3.org/TR/2001/REC-SVG-20010904/DTD/svg10.dtd">
<svg version="1.0" xmlns="http://www.w3.org/2000/svg"
 width="600.000000pt" height="600.000000pt" viewBox="0 0 600.000000 600.000000"
 preserveAspectRatio="xMidYMid meet">

<g transform="translate(0.000000,600.000000) scale(0.100000,-0.100000)"
fill="#000000" stroke="none">
<path d="M3541 5367 c-22 -8 -51 -33 -80 -70 -25 -32 -62 -67 -81 -77 -95 -50
-321 -150 -371 -164 -31 -9 -91 -39 -135 -68 -43 -28 -110 -68 -149 -88 -78
-40 -90 -63 -60 -120 15 -29 15 -34 1 -55 -9 -13 -32 -36 -52 -51 -92 -71
-242 -275 -295 -403 -41 -99 -52 -111 -105 -111 -23 0 -54 -4 -68 -10 -50 -19
-74 -106 -86 -310 -6 -108 -14 -156 -39 -240 -17 -58 -37 -146 -43 -196 -11
-84 -10 -100 15 -230 18 -92 27 -171 27 -234 0 -178 -58 -374 -154 -520 -27
-41 -65 -116 -86 -167 -67 -166 -167 -305 -316 -437 -144 -128 -221 -216 -363
-415 -87 -122 -111 -180 -111 -266 0 -117 50 -205 144 -252 64 -32 102 -67
128 -118 24 -48 73 -101 111 -121 16 -9 59 -18 96 -21 86 -7 322 13 383 33 94
31 199 155 239 283 11 36 33 149 50 251 16 102 34 203 40 225 16 58 54 131 93
177 19 22 49 69 67 104 36 74 45 80 148 106 96 24 150 56 203 121 106 129 156
168 313 246 141 69 293 160 394 237 l44 34 30 -35 c106 -129 266 -67 435 168
30 42 61 77 68 77 7 0 30 -21 52 -46 35 -41 43 -46 68 -40 34 9 153 129 201
203 18 29 51 98 73 154 25 63 52 115 75 140 27 30 35 48 35 77 0 49 14 62 66
62 49 0 86 31 118 100 24 53 28 158 8 207 -13 30 -12 33 31 86 58 71 88 151
94 252 6 93 17 110 75 119 63 10 74 21 102 93 36 94 40 125 26 180 -22 91 -92
203 -126 203 -27 0 -51 49 -57 118 -17 178 -114 374 -262 531 -179 189 -357
261 -647 261 -79 0 -169 6 -215 15 -92 18 -107 18 -152 2z m123 -73 c9 -3 16
-17 16 -30 0 -28 -7 -28 100 -9 120 21 270 19 362 -4 127 -33 218 -86 346
-203 170 -154 245 -322 272 -607 14 -138 9 -184 -22 -244 -20 -37 -22 -59 -24
-192 -1 -163 -12 -212 -74 -335 -33 -65 -39 -71 -111 -108 -58 -30 -76 -50
-65 -77 5 -15 14 -17 61 -11 47 5 56 4 65 -13 15 -29 12 -57 -11 -102 -17 -34
-24 -40 -42 -34 -80 25 -106 18 -142 -37 -33 -50 -35 -78 -6 -114 23 -29 15
-54 -18 -54 -37 0 -52 -25 -71 -118 -12 -60 -31 -115 -54 -157 -40 -73 -143
-215 -155 -215 -9 0 -18 21 -48 110 -15 43 -24 56 -42 58 -31 5 -93 -56 -178
-176 -87 -122 -179 -202 -232 -202 -25 0 -41 34 -41 85 0 43 -4 56 -19 65 -37
19 -66 11 -116 -36 -70 -64 -114 -90 -235 -142 -86 -37 -115 -44 -161 -43 -54
1 -56 1 -72 -33 -9 -20 -33 -46 -54 -59 -21 -13 -81 -51 -133 -85 -84 -55
-102 -62 -145 -62 -66 0 -199 -34 -235 -60 -20 -14 -37 -19 -54 -14 -23 5 -26
3 -26 -20 0 -24 30 -66 48 -66 4 0 68 16 142 35 74 19 143 35 153 35 44 0 -5
-61 -79 -98 -85 -43 -161 -56 -323 -57 -140 0 -155 2 -165 19 -6 10 -18 28
-27 39 -15 20 -17 20 -33 4 -23 -22 -48 -9 -70 38 -13 27 -15 49 -10 95 6 55
4 62 -25 106 -18 28 -31 60 -31 78 1 41 37 129 87 208 79 125 115 243 133 438
11 119 8 165 -25 350 -26 145 -12 249 66 504 47 155 48 164 12 168 -23 2 -29
8 -31 36 -2 18 4 57 12 86 l16 54 57 7 c32 4 78 8 103 10 41 2 45 5 61 41 9
22 24 45 33 53 9 7 16 26 16 41 0 49 33 133 80 202 25 37 114 137 198 222 155
159 186 206 125 192 -83 -19 -93 -19 -93 -3 0 30 48 50 140 58 105 10 140 23
212 79 51 41 245 141 358 185 52 20 55 23 58 59 3 31 9 40 35 51 33 15 104 19
131 9z m1194 -1021 c16 -70 -14 -183 -48 -183 -36 0 -35 78 2 183 23 64 32 64
46 0z m77 -142 c-8 -47 -29 -76 -63 -86 -22 -6 -22 -3 15 68 40 78 60 86 48
18z m-3092 -2039 c8 -69 44 -158 78 -191 43 -43 125 -80 220 -98 123 -24 159
-33 159 -41 0 -4 -25 -40 -55 -80 -95 -127 -143 -249 -171 -434 -51 -347 -163
-522 -343 -533 -31 -2 -82 -7 -113 -11 l-58 -7 -2 39 c-2 62 -5 87 -12 121 -9
42 3 42 48 3 l34 -30 8 37 c4 21 6 45 5 53 -4 28 -100 109 -144 121 -93 25
-207 -13 -242 -80 -22 -43 -49 -48 -96 -17 -76 50 -119 153 -100 238 13 55 39
108 58 115 8 3 37 40 66 82 28 42 69 96 92 121 23 25 49 59 60 75 10 17 77 86
148 155 150 145 235 247 279 334 17 33 35 66 40 73 18 22 35 2 41 -45z m-415
-1184 c12 -24 22 -56 22 -71 0 -16 7 -44 16 -63 24 -50 14 -66 -38 -58 -64 10
-77 20 -104 79 -27 58 -23 89 18 133 33 35 60 28 86 -20z"/>
<path d="M3700 4595 c0 -5 5 -17 10 -25 5 -8 10 -10 10 -5 0 6 -5 17 -10 25
-5 8 -10 11 -10 5z"/>
<path d="M3692 4540 c0 -14 2 -19 5 -12 2 6 2 18 0 25 -3 6 -5 1 -5 -13z"/>
<path d="M3820 4305 c0 -63 53 -126 82 -97 15 15 26 88 16 106 -6 11 -23 16
-53 16 -41 0 -45 -2 -45 -25z"/>
<path d="M3840 2979 c-48 -21 -244 -168 -395 -293 -97 -81 -194 -136 -290
-161 -35 -10 -131 -20 -230 -25 -160 -8 -235 -21 -235 -41 0 -18 71 -20 139
-5 48 11 120 16 228 16 132 0 165 3 198 19 51 23 373 229 445 285 30 23 93 68
140 100 102 70 113 82 99 107 -12 24 -42 23 -99 -2z"/>
</g>
</svg>
